<svg width="80" height="50" viewBox="0 0 187 99" fill="none" xmlns="http://www.w3.org/2000/svg">
<path d="M25.0656 1.4017C20.1466 3.86123 16.9998 8.09307 16.3849 12.9398L16.2041 14.5312L18.3381 12.9036C22.3891 9.79304 26.2954 5.23567 28.2124 1.47404C29.189 -0.479118 28.8634 -0.479118 25.0656 1.4017Z" fill="#ED3237"/>
<path d="M158.278 0.750721C158.64 1.98049 160.846 5.23575 162.872 7.62294C164.644 9.6846 170.286 14.6398 170.576 14.3866C170.901 14.0611 169.888 10.0825 169.02 8.27399C167.32 4.80171 163.089 1.40177 158.893 0.135838C158.097 -0.0811793 158.061 -0.0450097 158.278 0.750721Z" fill="#ED3237"/>
<path d="M11.6104 9.21431C8.93387 11.71 8.24665 13.844 8.42749 18.9439C8.57217 22.5247 9.47641 27.1182 10.1636 27.914C10.5253 28.3118 19.0975 21.3311 21.8464 18.4737C24.0527 16.1589 25.3187 13.8078 25.3548 12.144C25.3548 11.4207 25.174 11.1675 24.6676 11.1675C23.5102 11.1675 19.9294 14.0972 15.6976 18.5461C13.4551 20.8609 11.6104 22.7056 11.6104 22.597C11.6104 22.4885 12.0083 21.2226 12.4785 19.7758C13.8529 15.6887 14.5763 11.6015 14.3231 9.64835C14.1785 8.67177 13.9253 7.83987 13.7444 7.69519C13.5636 7.58668 12.6232 8.2739 11.6104 9.21431Z" fill="#ED3237"/>
<path d="M172.782 8.34619C172.167 10.7334 172.855 15.6163 174.41 19.9205C174.844 21.0417 175.097 22.1268 175.061 22.3438C174.989 22.5247 173.94 21.5481 172.746 20.1375C170.142 17.0631 164.97 12.4334 163.089 11.4929L161.714 10.8057V12.2525C161.714 15.3631 163.848 17.9673 171.191 23.9714C174.012 26.2863 176.435 28.1671 176.58 28.1671C176.906 28.1671 178.28 22.3438 178.533 19.6311C179.003 15.2546 177.557 10.9504 174.88 8.78023C174.048 8.09301 173.325 7.55046 173.216 7.55046C173.108 7.55046 172.927 7.91216 172.782 8.34619Z" fill="#ED3237"/>
<path d="M28.2485 30.3012C28.2485 49.037 28.4294 50.9178 30.3825 55.0411C32.4442 59.3815 37.2186 62.7814 42.3547 63.5772C52.4098 65.2048 60.982 62.0942 64.2373 55.6198C66.4074 51.388 66.3351 51.9667 66.4798 31.8564L66.6244 13.3376H60.2948H54.0013L53.8566 30.048L53.7481 46.7945L52.8438 48.603C51.7588 50.7731 50.2035 51.6774 47.5993 51.6774C45.1759 51.6412 42.9334 50.5923 42.1015 49.0732C41.4866 47.9881 41.4504 46.5051 41.3419 30.5905L41.2334 13.3376H34.7591H28.2485V30.3012Z" fill="#393464"/>
<path d="M74.3648 15.3993C74.2201 16.5567 74.1839 27.6246 74.2201 39.9946L74.3648 62.5283H90.9304H107.46L107.388 56.6326L107.279 50.7732L97.2601 50.6646L87.205 50.5923V46.7945V42.9967H95.3431H103.481V37.3904V31.7841H95.3431H87.205V28.348V24.9119H96.9707H106.737V19.1248V13.3377H90.6772H74.6179L74.3648 15.3993Z" fill="#393464"/>
<path d="M113.608 37.9329V62.5282H119.396H125.183L125.255 46.5051C125.364 31.6756 125.4 30.7352 125.834 33.5926C126.123 35.2925 127.172 40.6456 128.221 45.5285C129.27 50.4114 130.536 56.2347 131.006 58.4772L131.874 62.5644L136.395 62.4559L140.916 62.3474L141.893 57.6453C142.436 55.0411 143.918 47.8795 145.148 41.7307L147.427 30.5182L147.535 46.5051L147.608 62.5282H153.395H159.182V37.9329V13.3376H151.297H143.412L140.446 26.2502C138.819 33.3756 137.227 40.3925 136.974 41.8392C136.685 43.286 136.395 44.5519 136.287 44.6605C136.214 44.769 135.997 44.0456 135.889 43.1052C135.744 42.1648 134.406 35.9074 132.887 29.2522C131.368 22.597 129.957 16.2674 129.776 15.2184L129.414 13.3376H121.493H113.608V37.9329Z" fill="#393464"/>
<path d="M4.12304 19.9567C0.578419 25.2374 2.16988 35.2202 7.66765 42.5626L9.11444 44.4796L10.2357 42.3818C10.8506 41.2244 12.0803 39.3074 12.9846 38.1138C13.925 36.9202 15.4441 34.8947 16.4569 33.5926C18.8802 30.4097 19.6398 28.6012 19.4951 26.2863C19.4228 25.2736 19.2057 24.3693 18.9526 24.297C18.41 24.1162 13.2739 28.999 10.8144 32.0373C9.76549 33.3032 8.82508 34.2075 8.6804 34.0628C8.24637 33.6287 7.34213 29.8309 6.90809 26.6119C6.40172 22.9226 5.49748 18.7631 5.17195 18.7631C5.02728 18.7631 4.55707 19.3056 4.12304 19.9567Z" fill="#ED3237"/>
<path d="M181.427 19.1971C180.993 20.5354 180.486 22.9226 179.98 26.3587C179.329 30.5182 178.388 34.316 178.027 34.316C177.882 34.316 177.376 33.7735 176.906 33.1224C175.097 30.6629 172.312 27.6608 170.033 25.78C167.429 23.6098 167.212 23.6822 167.176 26.5757C167.14 28.6374 168.695 31.5309 172.312 36.1245C173.94 38.2223 175.784 40.8627 176.363 42.0201C176.978 43.1414 177.557 44.0818 177.701 44.0818C178.171 44.0818 180.776 40.3563 181.897 38.1138C183.959 33.9543 184.61 31.1331 184.429 26.7927C184.32 23.4651 184.139 22.6694 183.308 21.0418C182.259 19.0163 181.68 18.4376 181.427 19.1971Z" fill="#ED3237"/>
<path d="M0.144678 39.7414C0.289357 42.7435 0.542543 44.1541 1.37444 46.4328C2.71272 50.1583 5.17225 53.8837 8.17432 56.705C10.3445 58.7305 13.9976 61.4432 14.5402 61.4432C14.6487 61.4432 14.8657 59.707 14.9742 57.5369C15.1189 55.4029 15.6253 51.7136 16.1316 49.3264C16.638 46.9392 17.1444 43.1052 17.2529 40.8265L17.5061 36.667L16.7103 37.3904C15.4444 38.5117 13.1657 42.0925 12.2977 44.3711C11.7913 45.7456 11.4296 47.6987 11.2849 50.2306L11.0317 54.0284L10.3445 52.4008C8.57219 48.1328 4.1595 41.0074 0.723391 36.8479L0 35.9436L0.144678 39.7414Z" fill="#ED3237"/>
<path d="M184.067 39.6329C180.631 44.2264 178.28 48.1689 177.014 51.4242L176.001 54.0284L175.748 50.8816C175.495 47.554 174.735 44.4073 173.65 42.2733C172.746 40.501 169.997 36.8479 169.563 36.8479C168.984 36.8479 169.563 43.3222 170.576 48.5306C171.046 51.0987 171.661 55.005 171.878 57.2113C172.095 59.4538 172.348 61.3347 172.42 61.407C172.637 61.6602 177.159 58.1879 179.184 56.1624C182.656 52.7263 185.007 48.7476 186.056 44.6243C186.671 42.2733 187.25 36.1245 186.888 36.1245C186.78 36.1245 185.478 37.7159 184.067 39.6329Z" fill="#ED3237"/>
<path d="M18.8445 53.522C18.2658 55.873 18.5913 62.6368 19.3871 65.5303C19.7126 66.6877 19.9296 67.809 19.8573 68.026C19.7126 68.4239 10.7064 61.7687 5.82349 57.6815C1.73633 54.2454 1.7725 54.2454 2.35121 55.9454C5.17244 63.8665 11.3213 69.5451 20.4722 72.5834C22.2806 73.1983 24.487 73.777 25.4636 73.9217L27.1635 74.1387L26.4401 72.9089C25.2827 70.9196 23.9444 66.7239 22.9679 62.0219C21.8104 56.3071 20.2913 51.6774 19.5679 51.6774C19.3871 51.6774 19.0615 52.5093 18.8445 53.522Z" fill="#ED3237"/>
<path d="M166.344 53.305C165.801 54.354 164.789 57.8986 163.957 61.6964C162.619 67.6282 161.172 72.077 160.195 73.3068C159.58 74.0302 160.014 74.1387 162.257 73.7047C168.912 72.4749 175.531 68.8579 179.799 64.0836C181.499 62.1666 184.103 57.5369 184.718 55.2944C184.935 54.4263 184.935 54.4263 184.284 54.9688C178.714 59.7432 167.212 68.5324 166.923 68.2431C166.85 68.1346 167.104 66.7963 167.538 65.2048C168.514 61.5155 168.659 54.6795 167.827 52.7625L167.248 51.4966L166.344 53.305Z" fill="#ED3237"/>
<path d="M156.542 65.5665C155.783 66.7239 154.083 69.4005 152.744 71.5345C149.742 76.3812 147.934 78.8407 145.691 81.2279L143.955 83.0726L146.74 83.3258C154.914 84.1215 163.848 81.9151 169.925 77.6471C172.131 76.0918 175.965 72.6919 175.748 72.4387C175.676 72.3664 170.287 74.1025 163.776 76.3089C157.265 78.479 151.768 80.2513 151.587 80.2513C151.37 80.2513 152.093 79.1663 153.178 77.8642C156.578 73.7408 158.242 69.4366 158.025 65.3857L157.917 63.4325L156.542 65.5665Z" fill="#ED3237"/>
<path d="M28.7551 64.8431C28.0317 67.7366 30.4551 74.0663 33.6742 77.8641C34.6869 79.0216 35.4465 80.0705 35.338 80.1428C35.1209 80.3598 14.7575 73.6685 11.249 72.2578C10.5256 71.9685 10.6703 72.2217 11.9724 73.5599C18.7 80.5407 29.5508 84.3023 39.9315 83.3257L42.7165 83.0725L40.8719 81.047C38.9911 78.9854 35.6996 74.2472 32.2997 68.6771C31.2508 66.9771 30.0934 65.2048 29.7317 64.6984L29.0444 63.7942L28.7551 64.8431Z" fill="#ED3237"/>
<path d="M103.843 67.2665C103.843 67.5558 104.168 67.9899 104.566 68.2431C104.964 68.4962 105.29 68.5324 105.29 68.3877C105.29 68.2069 104.964 67.7728 104.566 67.4112C104.024 66.9048 103.843 66.8686 103.843 67.2665Z" fill="black"/>
<path d="M105.326 69.8345C105.29 70.4132 104.892 70.4855 102.505 70.4855C100.081 70.5217 99.7559 70.594 100.335 70.9919C100.696 71.2813 100.95 71.9323 100.95 72.6195C100.95 73.56 100.805 73.7408 100.081 73.7408C99.2857 73.7408 99.1772 73.56 99.0687 72.1855C98.9964 70.9557 98.8155 70.6664 98.2368 70.6664C97.1517 70.6664 97.0794 72.077 98.1283 72.8004C98.8155 73.3068 98.8517 73.4514 98.4538 73.7408C98.0198 73.994 97.9836 74.1387 98.4176 74.645C98.7432 75.0429 98.9964 75.1152 99.2857 74.8259C99.4666 74.645 99.9368 74.4642 100.298 74.4642C100.805 74.4642 100.95 74.7535 100.95 75.694C100.95 76.3812 101.13 77.0684 101.311 77.1769C101.528 77.3216 101.673 76.2727 101.673 74.3195V71.2089H103.698C105.398 71.2089 105.688 71.3174 105.579 71.8238C105.507 72.2578 105.073 72.511 104.313 72.5834C103.554 72.6557 103.084 72.9451 102.939 73.3791C102.722 74.1025 103.518 76.3812 104.169 76.779C104.711 77.1407 104.639 76.5982 104.024 75.7663C103.735 75.3684 103.481 74.6812 103.481 74.211C103.481 73.5238 103.662 73.3791 104.566 73.3791C105.615 73.3791 105.652 73.4153 105.652 75.1514C105.652 76.1642 105.832 77.0684 106.013 77.1769C106.23 77.3216 106.375 76.2727 106.375 74.3195C106.375 71.7153 106.483 71.2451 107.026 71.1004C107.532 70.9919 107.46 70.8834 106.7 70.5579C106.158 70.3409 105.652 69.943 105.543 69.6898C105.398 69.4005 105.326 69.4366 105.326 69.8345ZM98.7793 72.0408C98.7793 72.7642 98.7432 72.7642 98.2006 72.2217C97.8751 71.8962 97.7304 71.4621 97.8751 71.2451C98.2368 70.6664 98.7793 71.1366 98.7793 72.0408Z" fill="black"/>
<path d="M58.3773 71.0643C58.2688 71.3537 58.3411 72.0047 58.5581 72.4749C58.8837 73.1983 58.8475 73.4515 58.2688 73.8494C57.2199 74.5728 57.7986 74.8621 58.956 74.1749C59.5347 73.8494 60.2219 73.7409 60.6198 73.8855C61.1985 74.1026 61.1262 74.2472 59.9687 75.2238C59.2092 75.8387 58.739 76.4898 58.8475 76.7068C58.9922 76.8876 59.6794 76.4536 60.4751 75.694L61.8857 74.3196V75.6217C61.8857 76.3451 62.0666 77.0685 62.2474 77.177C62.4644 77.3217 62.6091 76.2727 62.6091 74.3196V71.209H65.3218C66.8771 71.209 68.0346 71.3537 68.0346 71.5707C68.0346 71.7515 67.6367 71.9324 67.1665 71.9324C65.1772 71.9324 65.0325 74.2111 66.9495 75.6217C67.9622 76.3451 67.9984 76.4536 67.4197 77.0685C66.5878 77.9727 66.1176 77.8642 66.2984 76.8153C66.4431 76.0557 66.3708 75.9472 65.8644 76.0919C65.4303 76.2366 65.2857 76.0919 65.2857 75.477C65.3218 74.8621 65.1048 74.6451 64.5984 74.6451C63.5857 74.6451 63.658 75.9834 64.707 76.4536C65.141 76.6344 65.5027 76.9961 65.5027 77.2493C65.5027 78.0089 66.8771 78.1536 67.8537 77.5025C68.6856 76.96 68.8665 76.96 69.192 77.394C69.4452 77.7557 69.4813 77.7195 69.2643 77.177C69.1196 76.7791 68.975 76.1281 68.9388 75.694C68.8665 74.7174 68.4324 74.0302 67.9984 74.3196C67.8175 74.4281 67.7452 74.6813 67.8899 74.8983C68.0346 75.1153 67.7814 75.1876 67.275 75.1153C66.5878 75.043 66.4069 74.7898 66.4069 73.9217C66.4069 72.9813 66.5516 72.8366 67.4558 72.7281C68.1069 72.6558 68.5409 72.3303 68.6494 71.8962C68.7579 71.5345 69.1558 71.209 69.5175 71.209C70.1324 71.209 70.2047 71.4984 70.2047 74.0664C70.2047 75.6579 70.3856 77.0685 70.5664 77.177C70.7834 77.3217 70.9281 76.2727 70.9281 74.3196V71.209H73.2791C75.5578 71.209 75.6302 71.2452 75.6302 72.1494C75.6302 72.9451 75.5578 73.0175 75.1238 72.6919C74.8344 72.4388 74.1472 72.2941 73.5685 72.3664C72.7366 72.4388 72.5196 72.6558 72.4472 73.6324C72.3026 75.0068 73.5323 76.0919 74.5812 75.5493C75.5217 75.043 75.6302 75.0791 75.6302 76.0557C75.6302 76.5621 75.811 77.0685 75.9919 77.177C76.2089 77.3217 76.3536 76.2727 76.3536 74.3196C76.3536 71.4622 76.4259 71.209 77.0769 71.209C77.728 71.209 77.8003 71.4622 77.8003 74.0664C77.8003 75.6579 77.9812 77.0685 78.162 77.177C78.379 77.3217 78.5237 76.2727 78.5237 74.3196V71.209H80.5131C82.3939 71.209 82.5024 71.2452 82.5024 72.1132C82.5024 72.909 82.3577 73.0175 81.2364 73.0175C80.3684 73.0175 79.9705 73.1983 79.9705 73.5238C79.9705 74.2111 80.8024 74.7174 80.9833 74.1749C81.0556 73.9217 81.4173 73.7409 81.8152 73.7409C82.3939 73.7409 82.5024 73.9941 82.5024 75.3323C82.5024 76.2366 82.6832 77.0685 82.8641 77.177C83.0811 77.3217 83.2258 76.2727 83.2258 74.3196C83.2258 72.4749 83.3704 71.209 83.5875 71.209C83.8045 71.209 83.9492 71.0281 83.9492 70.8473C83.9492 70.6303 79.862 70.4856 72.3749 70.4856C64.8878 70.4856 60.8006 70.6303 60.8006 70.8473C60.8006 71.0281 61.0538 71.209 61.3432 71.209C61.7411 71.209 61.8857 71.6069 61.8857 72.5111C61.8857 73.56 61.7772 73.777 61.307 73.5962C60.9815 73.4877 60.656 73.3792 60.5836 73.3792C60.5113 73.3792 60.4389 72.909 60.4389 72.3664C60.4389 70.7388 58.8837 69.7622 58.3773 71.0643ZM60.0773 71.9686C60.0773 72.8005 59.0645 72.909 58.739 72.0771C58.522 71.4984 59.2815 70.7388 59.7879 71.0643C59.9326 71.1728 60.0773 71.5707 60.0773 71.9686ZM75.2323 73.5238C75.594 73.9579 75.5217 74.1387 74.9429 74.4281C73.8217 75.043 72.7366 74.9345 72.7366 74.1749C72.7366 73.8132 72.8451 73.3792 72.9898 73.2707C73.3876 72.8366 74.7983 73.0175 75.2323 73.5238ZM65.0325 75.7664C64.707 76.0919 64.0197 75.5493 64.2729 75.1153C64.4176 74.8983 64.6346 74.8983 64.8878 75.1515C65.1048 75.3685 65.1772 75.6217 65.0325 75.7664Z" fill="black"/>
<path d="M89.9179 70.8473C90.0264 71.0281 91.2561 71.209 92.6667 71.209C94.8731 71.209 95.1624 71.2813 95.1624 71.8962C95.1624 72.7281 93.5348 73.1259 92.5944 72.5472C91.7987 72.0409 90.8221 72.7642 90.8221 73.9217C90.8221 74.8621 92.2327 77.0684 92.9923 77.2854C93.3178 77.3939 93.137 77.0323 92.5944 76.4174C91.3646 75.0429 91.1476 74.3195 91.6902 73.5238C92.1965 72.8366 92.9923 73.0898 92.9923 73.9578C92.9923 74.6451 93.571 74.6089 93.8603 73.9217C93.9689 73.6323 94.2944 73.3791 94.6199 73.3791C95.0178 73.3791 95.1624 73.8132 95.1624 75.1514C95.1624 76.1642 95.3433 77.0684 95.5241 77.1769C95.7412 77.3216 95.8858 76.2727 95.8858 74.3195C95.8858 72.4749 96.0305 71.209 96.2475 71.209C96.4646 71.209 96.6092 71.0281 96.6092 70.8473C96.6092 70.6302 95.1986 70.4856 93.137 70.4856C90.9306 70.4856 89.7732 70.6302 89.9179 70.8473Z" fill="black"/>
<path d="M113.428 70.8472C113.536 71.0281 114.621 71.2089 115.815 71.2089C117.84 71.2089 117.949 71.2451 117.949 72.1131C117.949 72.945 117.84 73.0174 116.141 73.0174C115.164 73.0174 114.332 73.0897 114.332 73.1982C114.332 73.3067 114.766 73.8131 115.345 74.2833C116.177 75.0067 116.249 75.2237 115.815 75.6216C115.417 75.9833 115.309 75.9833 115.164 75.6216C115.055 75.4046 114.838 75.1876 114.658 75.1876C113.898 75.1876 114.404 76.1641 115.706 77.1407C116.538 77.8279 116.792 77.9364 116.358 77.4301C115.743 76.7067 115.743 76.6343 116.285 76.0556C116.828 75.5131 116.828 75.4046 116.321 74.6088C115.779 73.7769 115.779 73.7408 116.828 73.7408C117.84 73.7408 117.913 73.8131 118.057 75.4407C118.13 76.562 118.202 76.128 118.238 74.1748C118.311 71.2812 118.311 71.2089 119.215 71.2089C120.119 71.2089 120.119 71.2451 120.119 74.0663C120.119 75.6578 120.3 77.0684 120.481 77.1769C120.698 77.3216 120.843 76.2726 120.843 74.3195V71.2089H122.832C124.713 71.2089 124.821 71.2451 124.821 72.1131C124.821 72.9089 124.677 73.0174 123.555 73.0174C122.687 73.0174 122.289 73.1982 122.289 73.5238C122.289 74.211 123.121 74.7174 123.302 74.1748C123.374 73.9216 123.736 73.7408 124.134 73.7408C124.713 73.7408 124.821 73.994 124.821 75.3322C124.821 76.2365 125.002 77.0684 125.183 77.1769C125.4 77.3216 125.545 76.2726 125.545 74.3195C125.545 71.2451 125.545 71.2089 126.449 71.2089C127.245 71.2089 127.353 71.3536 127.353 72.4025C127.353 73.0536 127.172 73.7769 126.991 73.9578C126.738 74.211 126.847 74.5365 127.353 75.0067C128.004 75.5854 128.076 75.5854 128.076 75.0791C128.076 74.6812 128.366 74.4642 128.945 74.4642C129.704 74.4642 129.813 74.6812 129.957 75.911C130.03 76.7067 129.921 77.3939 129.704 77.4662C129.523 77.5386 129.849 77.8641 130.5 78.1896C131.151 78.5513 131.838 79.0939 132.019 79.4194C132.236 79.7811 132.417 79.8896 132.417 79.6726C132.417 79.4556 132.019 78.913 131.513 78.4428C130.681 77.6471 130.608 77.3216 130.608 74.3918C130.608 72.511 130.753 71.2089 130.97 71.2089C131.187 71.2089 131.332 71.0281 131.332 70.8472C131.332 70.6302 128.076 70.4855 122.253 70.4855C116.321 70.4855 113.283 70.594 113.428 70.8472ZM129.885 72.4748C129.885 73.5961 129.776 73.7408 128.981 73.7408C128.185 73.7408 128.076 73.5961 128.076 72.4748C128.076 71.3536 128.185 71.2089 128.981 71.2089C129.776 71.2089 129.885 71.3536 129.885 72.4748Z" fill="black"/>
<path d="M41.2699 75.4408C41.3061 77.9727 44.6698 81.6982 48.54 83.579C49.9144 84.23 51.0357 84.8449 51.0357 84.9534C51.0357 85.0619 48.1783 85.4598 44.706 85.8215C37.6891 86.581 32.8785 86.4725 28.1403 85.496C26.585 85.1704 25.2106 84.9896 25.1021 85.0619C24.9936 85.1704 25.717 85.8577 26.6936 86.5449C32.9147 91.1746 47.9251 91.1022 59.1376 86.4002L61.9589 85.2066L57.9802 83.6875C53.6399 82.0237 47.5272 78.9131 44.2358 76.7068C41.2337 74.6813 41.2699 74.7174 41.2699 75.4408Z" fill="#ED3237"/>
<path d="M142.255 76.8875C138.529 79.3109 132.561 82.2768 128.329 83.9044C126.593 84.5555 125.291 85.2065 125.436 85.3512C126.159 86.0746 131.693 87.9554 135.563 88.7873C145.655 90.9936 155.963 89.9809 160.376 86.3639C161.135 85.7491 161.678 85.1703 161.605 85.098C161.569 85.0257 159.652 85.2789 157.41 85.6767C155.167 86.0746 151.948 86.4001 150.248 86.4001C147.355 86.4001 137.191 85.4597 136.033 85.098C135.744 84.9895 136.576 84.4108 138.059 83.6874C139.433 83.0002 141.35 81.8066 142.255 80.9747C144.027 79.4556 145.582 76.779 145.365 75.6216C145.257 75.0429 144.859 75.2237 142.255 76.8875Z" fill="#ED3237"/>
<path d="M83.6964 84.7725C80.5858 85.3512 78.1624 86.1108 74.3646 87.7746C67.8903 90.5958 63.1882 91.6809 56.3884 91.8979C54.4352 91.9703 52.8438 92.0426 52.8438 92.115C52.8438 92.549 57.4373 94.1043 59.7883 94.4298C65.3584 95.2255 70.6753 94.1043 79.7901 90.198C83.1177 88.7512 89.1942 86.7619 90.1707 86.7619C91.0026 86.7619 90.2069 87.4491 88.3984 88.3533C84.9985 90.0171 79.5369 93.7426 77.0412 96.0936L74.7263 98.3L76.6795 98.3361C78.5603 98.3361 78.6688 98.2638 81.0198 96.0574C82.3219 94.8277 84.3474 93.2 85.4325 92.4767C88.3261 90.5597 94.0409 87.8469 95.1621 87.8469C96.4642 87.8469 102.251 90.7043 105.434 92.9107C106.845 93.8873 108.798 95.5149 109.811 96.5276C111.547 98.2638 111.655 98.3361 113.609 98.3361L115.598 98.3L113.175 96.0213C110.426 93.4532 106.375 90.6682 102.505 88.6427C101.058 87.9193 99.8642 87.1597 99.8642 87.015C99.8642 86.3278 105.073 87.8831 110.534 90.198C119.685 94.1043 124.966 95.2255 130.536 94.4298C132.887 94.1043 137.481 92.549 137.481 92.115C137.481 92.0426 136.07 91.9703 134.334 91.8979C127.136 91.6809 123.157 90.8129 116.032 87.8108C108.473 84.6279 103.879 83.796 98.4897 84.7364C95.4877 85.2427 94.8366 85.2789 92.0516 84.7725C88.3623 84.1215 87.2048 84.1215 83.6964 84.7725Z" fill="#ED3237"/>
</svg>
