<?xml version="1.0" standalone="no"?>
<!DOCTYPE svg PUBLIC "-//W3C//DTD SVG 20010904//EN"
 "http://www.w3.org/TR/2001/REC-SVG-20010904/DTD/svg10.dtd">
<svg version="1.0" xmlns="http://www.w3.org/2000/svg"
 width="638.000000pt" height="391.000000pt" viewBox="0 0 638.000000 391.000000"
 preserveAspectRatio="xMidYMid meet">

<g transform="translate(0.000000,391.000000) scale(0.100000,-0.100000)"
fill="#000000" stroke="none">
<path d="M1252 3800 c-136 -68 -223 -185 -240 -319 l-5 -44 59 45 c112 86 220
212 273 316 27 54 18 54 -87 2z"/>
<path d="M4935 3818 c10 -34 71 -124 127 -190 49 -57 205 -194 213 -187 9 9
-19 119 -43 169 -47 96 -164 190 -280 225 -22 6 -23 5 -17 -17z"/>
<path d="M880 3584 c-74 -69 -93 -128 -88 -269 4 -99 29 -226 48 -248 10 -11
247 182 323 261 61 64 96 129 97 175 0 20 -5 27 -19 27 -32 0 -131 -81 -248
-204 -62 -64 -113 -115 -113 -112 0 3 11 38 24 78 38 113 58 226 51 280 -4 27
-11 50 -16 54 -5 3 -31 -16 -59 -42z"/>
<path d="M5336 3608 c-17 -66 2 -201 45 -320 12 -31 19 -61 18 -67 -2 -5 -31
22 -64 61 -72 85 -215 213 -267 239 l-38 19 0 -40 c0 -86 59 -158 262 -324 78
-64 145 -116 149 -116 9 0 47 161 54 236 13 121 -27 240 -101 300 -23 19 -43
34 -46 34 -3 0 -8 -10 -12 -22z"/>
<path d="M1340 3001 c0 -518 5 -570 59 -684 57 -120 189 -214 331 -236 278
-45 515 41 605 220 60 117 58 101 62 657 l4 512 -175 0 -174 0 -4 -462 -3
-463 -25 -50 c-30 -60 -73 -85 -145 -85 -67 1 -129 30 -152 72 -17 30 -18 71
-21 511 l-3 477 -179 0 -180 0 0 -469z"/>
<path d="M2615 3413 c-4 -32 -5 -338 -4 -680 l4 -623 458 0 457 0 -2 163 -3
162 -277 3 -278 2 0 105 0 105 225 0 225 0 0 155 0 155 -225 0 -225 0 0 95 0
95 270 0 270 0 0 160 0 160 -444 0 -444 0 -7 -57z"/>
<path d="M3700 2790 l0 -680 160 0 160 0 2 443 c3 410 4 436 16 357 8 -47 37
-195 66 -330 29 -135 64 -296 77 -358 l24 -113 125 3 125 3 27 130 c15 72 56
270 90 440 l63 310 3 -442 2 -443 160 0 160 0 0 680 0 680 -218 0 -218 0 -82
-357 c-45 -197 -89 -391 -96 -431 -8 -40 -16 -75 -19 -78 -2 -3 -8 17 -11 43
-4 26 -41 199 -83 383 -42 184 -81 359 -86 388 l-10 52 -219 0 -218 0 0 -680z"/>
<path d="M673 3287 c-98 -146 -54 -422 98 -625 l40 -53 31 58 c17 32 51 85 76
118 26 33 68 89 96 125 67 88 88 138 84 202 -2 28 -8 53 -15 55 -15 5 -157
-130 -225 -214 -29 -35 -55 -60 -59 -56 -12 12 -37 117 -49 206 -14 102 -39
217 -48 217 -4 0 -17 -15 -29 -33z"/>
<path d="M5575 3308 c-12 -37 -26 -103 -40 -198 -18 -115 -44 -220 -54 -220
-4 0 -18 15 -31 33 -50 68 -127 151 -190 203 -72 60 -78 58 -79 -22 -1 -57 42
-137 142 -264 45 -58 96 -131 112 -163 17 -31 33 -57 37 -57 13 0 85 103 116
165 57 115 75 193 70 313 -3 92 -8 114 -31 159 -29 56 -45 72 -52 51z"/>
<path d="M563 2740 c4 -83 11 -122 34 -185 37 -103 105 -206 188 -284 60 -56
161 -131 176 -131 3 0 9 48 12 108 4 59 18 161 32 227 14 66 28 172 31 235 l7
115 -22 -20 c-35 -31 -98 -130 -122 -193 -14 -38 -24 -92 -28 -162 l-7 -105
-19 45 c-49 118 -171 315 -266 430 l-20 25 4 -105z"/>
<path d="M5648 2743 c-95 -127 -160 -236 -195 -326 l-28 -72 -7 87 c-7 92 -28
179 -58 238 -25 49 -101 150 -113 150 -16 0 0 -179 28 -323 13 -71 30 -179 36
-240 6 -62 13 -114 15 -116 6 -7 131 89 187 145 96 95 161 205 190 319 17 65
33 235 23 235 -3 0 -39 -44 -78 -97z"/>
<path d="M1080 2359 c-16 -65 -7 -252 15 -332 9 -32 15 -63 13 -69 -4 -11
-253 173 -388 286 -113 95 -112 95 -96 48 78 -219 248 -376 501 -460 50 -17
111 -33 138 -37 l47 -6 -20 34 c-32 55 -69 171 -96 301 -32 158 -74 286 -94
286 -5 0 -14 -23 -20 -51z"/>
<path d="M5158 2365 c-15 -29 -43 -127 -66 -232 -37 -164 -77 -287 -104 -321
-17 -20 -5 -23 57 -11 184 34 367 134 485 266 47 53 119 181 136 243 6 24 6
24 -12 9 -154 -132 -472 -375 -480 -367 -2 3 5 40 17 84 27 102 31 291 8 344
l-16 35 -25 -50z"/>
<path d="M4887 2026 c-21 -32 -68 -106 -105 -165 -83 -134 -133 -202 -195
-268 l-48 -51 77 -7 c226 -22 473 39 641 157 61 43 167 137 161 144 -2 2 -151
-46 -331 -107 -180 -60 -332 -109 -337 -109 -6 0 14 30 44 66 94 114 140 233
134 345 l-3 54 -38 -59z"/>
<path d="M1354 2046 c-20 -80 47 -255 136 -360 28 -32 49 -61 46 -63 -6 -6
-569 179 -666 218 -20 8 -16 1 20 -36 186 -193 486 -297 773 -270 l77 7 -51
56 c-52 57 -143 188 -237 342 -29 47 -61 96 -71 110 l-19 25 -8 -29z"/>
<path d="M3430 1979 c0 -8 9 -20 20 -27 11 -7 20 -8 20 -4 0 5 -9 17 -20 27
-15 14 -20 15 -20 4z"/>
<path d="M3471 1908 c-1 -16 -12 -18 -78 -18 -67 -1 -76 -3 -60 -14 10 -8 17
-26 17 -45 0 -26 -4 -31 -24 -31 -22 0 -25 5 -28 43 -2 34 -7 42 -23 42 -30 0
-32 -39 -3 -59 19 -14 20 -18 9 -26 -12 -7 -13 -11 -1 -25 9 -11 16 -13 24 -5
5 5 18 10 28 10 14 0 18 -8 18 -34 0 -19 5 -38 10 -41 6 -4 10 25 10 79 l0 86
56 0 c47 0 55 -3 52 -17 -2 -12 -14 -19 -35 -21 -21 -2 -34 -10 -38 -22 -6
-20 16 -83 34 -94 15 -10 13 5 -4 28 -8 11 -15 30 -15 43 0 19 5 23 30 23 29
0 30 -1 30 -49 0 -28 5 -53 10 -56 6 -4 10 25 10 79 0 72 3 85 18 89 14 3 12
6 -9 15 -15 6 -29 17 -32 24 -4 8 -6 7 -6 -4z m-181 -61 c0 -20 -1 -20 -16 -5
-9 9 -13 21 -9 27 10 16 25 3 25 -22z"/>
<path d="M2173 1874 c-3 -8 -1 -26 5 -39 9 -20 8 -27 -8 -38 -29 -20 -13 -28
19 -9 16 9 35 12 46 8 16 -6 14 -10 -18 -37 -21 -17 -34 -35 -31 -41 4 -5 23
7 45 28 l39 38 0 -36 c0 -20 5 -40 10 -43 6 -4 10 25 10 79 l0 86 75 0 c43 0
75 -4 75 -10 0 -5 -11 -10 -24 -10 -55 0 -59 -63 -6 -102 28 -20 29 -23 13
-40 -23 -25 -36 -22 -31 7 4 21 2 24 -12 20 -12 -4 -16 0 -16 17 1 17 -5 23
-19 23 -28 0 -26 -37 3 -50 12 -5 22 -15 22 -22 0 -21 38 -25 65 -7 23 15 28
15 37 3 7 -10 8 -9 2 6 -4 11 -8 29 -9 41 -2 27 -14 46 -26 38 -5 -3 -7 -10
-3 -16 4 -6 -3 -8 -17 -6 -19 2 -24 9 -24 33 0 26 4 30 29 33 18 2 30 11 33
23 3 10 14 19 24 19 17 0 19 -8 19 -79 0 -44 5 -83 10 -86 6 -4 10 25 10 79
l0 86 65 0 c63 0 65 -1 65 -26 0 -22 -2 -24 -14 -15 -8 7 -27 11 -43 9 -23 -2
-29 -8 -31 -35 -4 -38 30 -68 59 -53 26 14 29 13 29 -14 0 -14 5 -28 10 -31 6
-4 10 25 10 79 0 79 2 86 20 86 18 0 20 -7 20 -79 0 -44 5 -83 10 -86 6 -4 10
25 10 79 l0 86 55 0 c52 0 55 -1 55 -25 0 -22 -4 -25 -35 -25 -24 0 -35 -5
-35 -14 0 -19 23 -33 28 -18 2 7 12 12 23 12 16 0 19 -7 19 -44 0 -25 5 -48
10 -51 6 -4 10 25 10 79 0 51 4 86 10 86 6 0 10 5 10 10 0 6 -113 10 -320 10
-207 0 -320 -4 -320 -10 0 -5 7 -10 15 -10 11 0 15 -11 15 -36 0 -29 -3 -35
-16 -30 -9 3 -18 6 -20 6 -2 0 -4 13 -4 28 0 45 -43 72 -57 36z m47 -25 c0
-23 -28 -26 -37 -3 -6 16 15 37 29 28 4 -3 8 -14 8 -25z m419 -43 c10 -12 8
-17 -8 -25 -31 -17 -61 -14 -61 7 0 10 3 22 7 25 11 12 50 7 62 -7z m-282 -62
c-9 -9 -28 6 -21 18 4 6 10 6 17 -1 6 -6 8 -13 4 -17z"/>
<path d="M3045 1880 c3 -5 37 -10 76 -10 61 0 69 -2 69 -19 0 -23 -45 -34 -71
-18 -22 14 -49 -6 -49 -38 0 -26 39 -87 60 -93 9 -3 4 7 -11 24 -34 38 -40 58
-25 80 14 19 36 12 36 -12 0 -19 16 -18 24 1 3 8 12 15 21 15 11 0 15 -12 15
-49 0 -28 5 -53 10 -56 6 -4 10 25 10 79 0 51 4 86 10 86 6 0 10 5 10 10 0 6
-39 10 -96 10 -61 0 -93 -4 -89 -10z"/>
<path d="M3695 1880 c3 -5 33 -10 66 -10 56 0 59 -1 59 -25 0 -23 -3 -25 -50
-25 -27 0 -50 -2 -50 -5 0 -3 12 -17 28 -30 23 -20 25 -26 13 -37 -11 -10 -14
-10 -18 0 -3 6 -9 12 -14 12 -21 0 -7 -27 29 -54 23 -19 30 -22 18 -8 -17 20
-17 22 -2 38 15 15 15 18 1 40 -15 23 -15 24 14 24 28 0 30 -2 34 -47 2 -31 4
-19 5 35 2 80 2 82 27 82 25 0 25 -1 25 -79 0 -44 5 -83 10 -86 6 -4 10 25 10
79 l0 86 55 0 c52 0 55 -1 55 -25 0 -22 -4 -25 -35 -25 -24 0 -35 -5 -35 -14
0 -19 23 -33 28 -18 2 7 12 12 23 12 16 0 19 -7 19 -44 0 -25 5 -48 10 -51 6
-4 10 25 10 79 0 85 0 86 25 86 22 0 25 -4 25 -33 0 -18 -5 -38 -10 -43 -7 -7
-4 -16 10 -29 18 -16 20 -16 20 -2 0 11 8 17 24 17 21 0 24 -6 28 -40 2 -22
-1 -41 -7 -43 -5 -2 4 -11 22 -20 18 -10 37 -25 42 -34 6 -10 11 -13 11 -7 0
6 -11 21 -25 34 -23 22 -25 31 -25 112 0 52 4 88 10 88 6 0 10 5 10 10 0 6
-90 10 -251 10 -164 0 -248 -3 -244 -10z m455 -45 c0 -31 -3 -35 -25 -35 -22
0 -25 4 -25 35 0 31 3 35 25 35 22 0 25 -4 25 -35z"/>
<path d="M1700 1753 c1 -70 94 -173 201 -225 38 -18 69 -35 69 -38 0 -3 -79
-14 -175 -24 -194 -21 -327 -18 -458 9 -43 9 -81 14 -84 12 -3 -3 17 -22 44
-41 172 -128 587 -126 897 4 l78 33 -110 42 c-120 46 -289 132 -380 193 -83
56 -82 55 -82 35z"/>
<path d="M4492 1713 c-103 -67 -268 -149 -385 -194 -48 -18 -84 -36 -80 -40
20 -20 173 -72 280 -95 279 -61 564 -33 686 67 21 17 36 33 34 35 -1 2 -54 -5
-116 -16 -62 -11 -151 -20 -198 -20 -80 0 -361 26 -393 36 -8 3 15 19 56 39
38 19 91 52 116 75 49 42 92 116 86 148 -3 16 -14 11 -86 -35z"/>
<path d="M2873 1495 c-86 -16 -153 -37 -258 -83 -179 -78 -309 -108 -497 -114
-54 -2 -98 -4 -98 -6 0 -12 127 -55 192 -64 154 -22 301 9 553 117 92 40 260
95 287 95 23 0 1 -19 -49 -44 -94 -46 -245 -149 -314 -214 l-64 -61 54 -1 c52
0 55 2 120 63 36 34 92 79 122 99 80 53 238 128 269 128 36 0 196 -79 284
-140 39 -27 93 -72 121 -100 48 -48 51 -50 105 -50 l55 1 -67 63 c-76 71 -188
148 -295 204 -40 20 -73 41 -73 45 0 19 144 -24 295 -88 253 -108 399 -139
553 -117 65 9 192 52 192 64 0 2 -39 4 -87 6 -199 6 -309 30 -506 113 -209 88
-336 111 -485 85 -83 -14 -101 -15 -178 -1 -102 18 -134 18 -231 0z"/>
<path d="M1314 939 c-22 -25 -31 -131 -15 -182 7 -19 29 -48 51 -66 29 -23 40
-39 40 -60 0 -68 -58 -83 -73 -18 -9 38 -23 48 -33 22 -9 -23 16 -111 36 -130
43 -39 89 10 97 103 7 78 -14 136 -62 175 -27 22 -35 35 -35 61 0 22 6 36 16
40 21 8 44 -11 44 -35 0 -11 7 -19 16 -19 14 0 16 8 11 45 -8 76 -54 107 -93
64z"/>
<path d="M1932 935 c-31 -39 -45 -126 -40 -245 6 -118 23 -174 62 -192 58 -26
96 64 96 226 -1 115 -10 168 -38 205 -26 36 -55 38 -80 6z m64 -66 c15 -16 19
-40 22 -117 5 -120 -11 -177 -48 -177 -20 0 -26 8 -38 45 -18 60 -11 210 12
245 20 30 27 31 52 4z"/>
<path d="M2685 944 c-24 -25 -35 -60 -45 -141 -9 -88 3 -220 25 -262 9 -18 27
-37 41 -43 21 -10 28 -8 54 17 29 28 30 31 30 127 l0 98 -35 0 c-33 0 -35 -2
-35 -35 0 -28 4 -35 20 -35 16 0 20 -7 20 -38 0 -70 -51 -87 -76 -25 -12 27
-15 63 -12 139 3 91 6 106 25 125 25 26 47 16 57 -27 10 -39 31 -23 29 22 -5
71 -60 115 -98 78z"/>
<path d="M3868 950 c-31 -19 -51 -107 -51 -220 0 -115 12 -173 44 -214 27 -34
51 -33 83 5 24 28 26 38 26 125 l0 94 -35 0 c-33 0 -35 -2 -35 -35 0 -28 4
-35 20 -35 16 0 20 -7 20 -33 0 -66 -50 -90 -77 -37 -16 31 -17 205 -2 248 18
53 60 51 73 -4 10 -39 31 -23 29 22 -5 67 -52 109 -95 84z"/>
<path d="M4103 923 c-13 -31 -14 -49 -6 -98 9 -50 8 -65 -6 -90 -23 -44 -22
-182 2 -218 21 -32 40 -34 68 -6 20 20 21 20 34 2 12 -17 14 -16 20 10 4 16 3
39 -4 54 -7 15 -9 43 -5 69 8 52 -4 77 -21 44 -11 -21 -12 -21 -23 19 -8 33
-7 48 4 69 19 37 18 132 -2 160 -22 32 -43 27 -61 -15z m55 -47 c5 -24 -6 -66
-18 -66 -12 0 -24 65 -15 80 9 15 29 7 33 -14z m-12 -231 c17 -51 17 -57 1
-72 -34 -35 -60 31 -41 105 10 36 22 26 40 -33z"/>
<path d="M5091 933 c-32 -39 -36 -65 -36 -208 0 -144 12 -196 51 -222 21 -13
29 -14 48 -4 42 23 56 62 56 155 l0 86 -40 0 c-39 0 -40 -1 -40 -35 0 -28 4
-35 20 -35 17 0 20 -7 20 -39 0 -69 -55 -84 -77 -21 -7 19 -12 73 -12 120 -1
131 43 200 79 123 27 -58 51 -29 31 37 -22 73 -63 90 -100 43z"/>
<path d="M370 768 c0 -101 5 -200 10 -220 19 -68 80 -75 106 -12 21 50 20 414
-1 414 -12 0 -15 -29 -17 -181 -3 -163 -5 -183 -21 -193 -15 -9 -21 -7 -33 8
-11 16 -14 58 -14 193 0 147 -2 173 -15 173 -13 0 -15 -27 -15 -182z"/>
<path d="M547 728 c1 -144 6 -224 13 -226 6 -2 10 43 10 132 0 75 4 136 8 136
4 0 21 -60 38 -132 23 -101 34 -134 47 -136 16 -3 17 16 17 222 0 192 -2 226
-15 226 -12 0 -15 -25 -17 -142 l-3 -143 -35 143 c-26 104 -39 142 -50 142
-13 0 -15 -30 -13 -222z"/>
<path d="M720 725 c0 -193 2 -225 15 -225 13 0 15 32 15 225 0 193 -2 225 -15
225 -13 0 -15 -32 -15 -225z"/>
<path d="M774 923 c3 -16 17 -117 32 -225 23 -163 31 -198 44 -198 13 0 21 36
44 208 15 114 30 215 33 225 3 12 -1 17 -14 17 -17 0 -21 -17 -38 -160 -10
-87 -21 -157 -25 -155 -4 2 -15 74 -25 160 -17 139 -21 155 -38 155 -15 0 -18
-5 -13 -27z"/>
<path d="M950 725 l0 -225 65 0 65 0 0 34 c0 34 -1 35 -47 38 l-48 3 -3 63 -3
62 46 0 c45 0 45 0 45 34 0 34 -1 35 -42 38 l-43 3 -3 53 -3 52 50 0 51 0 0
35 0 35 -65 0 -65 0 0 -225z"/>
<path d="M1110 725 c0 -193 2 -225 15 -225 12 0 15 17 15 89 0 88 10 115 32
93 6 -6 21 -48 33 -94 16 -61 27 -84 40 -87 16 -3 17 2 11 39 -4 24 -16 69
-27 102 -17 52 -18 61 -5 74 20 20 29 73 24 144 -6 77 -17 90 -84 90 l-54 0 0
-225z m104 139 c9 -23 7 -77 -3 -92 -5 -8 -21 -12 -37 -10 -26 3 -29 7 -32 47
-2 24 -1 50 2 57 7 19 62 18 70 -2z"/>
<path d="M1450 725 c0 -193 2 -225 15 -225 13 0 15 32 15 225 0 193 -2 225
-15 225 -13 0 -15 -32 -15 -225z"/>
<path d="M1510 915 c0 -31 3 -35 25 -35 l25 0 0 -190 c0 -162 2 -190 15 -190
13 0 15 28 15 190 l0 190 25 0 c22 0 25 4 25 35 l0 35 -65 0 -65 0 0 -35z"/>
<path d="M1686 809 c25 -102 34 -164 34 -225 0 -68 3 -84 15 -84 12 0 15 18
15 104 0 94 27 255 56 329 4 12 1 17 -13 17 -16 0 -23 -14 -38 -80 -17 -75
-35 -113 -35 -75 0 9 -7 47 -16 86 -12 54 -20 69 -34 69 -16 0 -15 -11 16
-141z"/>
<path d="M2082 728 c3 -190 5 -223 18 -223 12 0 16 19 20 95 l5 95 33 3 c29 3
32 6 32 38 0 32 -2 34 -35 34 -35 0 -35 0 -35 45 0 25 -1 48 -2 53 -2 4 16 8
40 10 41 3 42 4 42 38 l0 34 -60 0 -60 0 2 -222z"/>
<path d="M2300 725 l0 -225 65 0 65 0 0 34 c0 34 -1 35 -47 38 l-48 3 -3 63
-3 62 46 0 c45 0 45 0 45 34 0 34 -1 35 -42 38 l-43 3 -3 53 -3 52 50 0 51 0
0 35 0 35 -65 0 -65 0 0 -225z"/>
<path d="M2467 728 c1 -144 6 -224 13 -226 6 -2 10 43 10 132 0 75 4 136 8
136 4 0 21 -60 38 -132 23 -101 34 -134 47 -136 16 -3 17 16 17 222 0 192 -2
226 -15 226 -12 0 -15 -25 -17 -142 l-3 -143 -35 143 c-26 104 -39 142 -50
142 -13 0 -15 -30 -13 -222z"/>
<path d="M2830 725 c0 -193 2 -225 15 -225 13 0 15 32 15 225 0 193 -2 225
-15 225 -13 0 -15 -32 -15 -225z"/>
<path d="M2900 725 c0 -193 2 -225 15 -225 13 0 15 23 16 143 l1 142 35 -142
c24 -100 39 -143 49 -143 12 0 14 38 14 225 0 200 -2 225 -16 225 -14 0 -16
-16 -13 -134 2 -74 1 -137 -2 -140 -3 -4 -16 40 -28 96 -36 164 -41 178 -56
178 -13 0 -15 -34 -15 -225z"/>
<path d="M3076 728 l5 -223 59 -3 60 -3 0 35 c0 34 -1 35 -46 38 l-47 3 0 60
0 60 42 3 c40 3 41 4 41 38 0 33 -1 34 -40 34 l-40 0 0 55 0 55 45 0 c45 0 45
0 45 35 l0 35 -64 0 -64 0 4 -222z"/>
<path d="M3240 725 l0 -225 60 0 60 0 0 35 c0 35 0 35 -45 35 l-45 0 0 65 0
65 39 0 c37 0 39 2 43 35 l4 35 -43 0 -43 0 0 55 0 55 45 0 c45 0 45 0 45 35
l0 35 -60 0 -60 0 0 -225z"/>
<path d="M3400 725 c0 -193 2 -225 15 -225 12 0 15 17 15 96 0 86 2 95 18 92
12 -2 23 -27 41 -96 19 -74 27 -92 42 -92 23 0 24 -9 -6 105 -24 92 -24 97 -8
122 20 31 23 152 5 196 -11 25 -16 27 -67 27 l-55 0 0 -225z m103 120 c13 -47
-6 -85 -43 -85 l-30 0 0 61 0 60 32 -3 c26 -2 34 -9 41 -33z"/>
<path d="M3577 728 c1 -144 6 -224 13 -226 7 -3 10 70 10 222 0 174 -3 226
-12 226 -10 0 -13 -50 -11 -222z"/>
<path d="M3640 725 c0 -193 2 -225 15 -225 13 0 15 22 15 142 0 78 3 139 6
135 4 -3 21 -66 38 -139 24 -102 35 -134 49 -136 16 -3 17 14 17 222 0 194 -2
226 -15 226 -13 0 -15 -23 -15 -142 0 -79 -4 -136 -9 -128 -4 8 -21 72 -37
143 -23 105 -31 127 -46 127 -17 0 -18 -16 -18 -225z"/>
<path d="M4320 725 c0 -193 2 -225 15 -225 13 0 15 25 15 162 0 89 2 159 4
157 2 -2 9 -65 16 -139 14 -165 17 -180 34 -180 10 0 17 36 26 145 8 80 17
148 22 151 4 3 8 -63 8 -145 0 -94 4 -151 10 -151 6 0 10 82 10 225 0 219 0
225 -20 225 -26 0 -26 0 -41 -158 -6 -73 -14 -131 -17 -128 -5 5 -31 220 -32
264 0 17 -6 22 -25 22 l-25 0 0 -225z"/>
<path d="M4560 863 c-6 -49 -20 -143 -31 -210 -23 -147 -23 -153 -5 -153 9 0
16 17 21 50 l7 50 38 0 38 0 7 -50 c5 -33 12 -50 21 -50 19 0 18 18 -11 205
-38 257 -36 245 -55 245 -15 0 -20 -15 -30 -87z m49 -130 c8 -53 8 -53 -19
-53 l-26 0 12 73 c17 101 15 102 33 -20z"/>
<path d="M4700 725 c0 -193 2 -225 15 -225 13 0 15 23 16 143 1 160 4 157 49
-45 15 -68 26 -98 36 -98 12 0 14 37 14 225 0 143 -4 225 -10 225 -6 0 -10
-56 -10 -147 0 -87 -4 -142 -9 -133 -5 8 -18 58 -30 110 -36 155 -41 170 -56
170 -13 0 -15 -34 -15 -225z"/>
<path d="M4925 938 c-2 -7 -16 -94 -30 -193 -14 -99 -28 -195 -31 -212 -5 -25
-3 -33 9 -33 16 0 27 29 27 73 0 25 3 27 40 27 37 0 39 -2 45 -37 10 -56 13
-63 31 -63 12 0 15 6 11 23 -3 12 -17 99 -31 192 -37 244 -35 235 -52 235 -8
0 -17 -6 -19 -12z m38 -220 c5 -35 4 -38 -19 -38 -26 0 -26 0 -19 68 12 111
17 107 38 -30z"/>
<path d="M5240 725 l0 -225 65 0 65 0 0 34 c0 34 -1 35 -47 38 l-48 3 -3 63
-3 62 46 0 c45 0 45 0 45 34 0 34 -1 35 -42 38 l-43 3 -3 53 -3 52 50 0 51 0
0 35 0 35 -65 0 -65 0 0 -225z"/>
<path d="M5400 725 c0 -193 2 -225 15 -225 13 0 15 24 15 158 1 170 13 187 24
32 10 -148 17 -190 32 -190 8 0 15 19 18 53 3 28 12 104 20 167 l13 115 2
-167 c1 -142 3 -168 16 -168 13 0 15 32 15 225 l0 225 -24 0 c-27 0 -31 -12
-42 -154 -11 -148 -19 -154 -33 -26 -18 180 -18 180 -46 180 l-25 0 0 -225z"/>
<path d="M5610 725 l0 -226 63 3 c62 3 62 3 65 36 l3 32 -50 0 -51 0 0 64 0
65 43 3 c39 3 42 5 45 36 3 32 3 32 -42 32 l-46 0 0 55 0 55 45 0 c45 0 45 0
45 35 l0 35 -60 0 -60 0 0 -225z"/>
<path d="M5770 725 c0 -191 2 -225 15 -225 12 0 15 25 17 143 l3 142 22 -90
c12 -49 27 -114 33 -142 8 -34 17 -53 26 -53 12 0 14 38 14 225 0 143 -4 225
-10 225 -6 0 -10 -56 -10 -147 0 -86 -4 -142 -9 -133 -5 8 -18 58 -30 110 -34
151 -41 170 -56 170 -13 0 -15 -34 -15 -225z"/>
<path d="M5930 916 c0 -30 4 -35 27 -38 l27 -3 2 -185 c2 -148 5 -185 15 -185
11 0 15 38 17 188 l2 187 25 0 c22 0 25 4 25 35 l0 35 -70 0 -70 0 0 -34z"/>
<path d="M1043 370 c-46 -27 -67 -73 -66 -146 1 -101 43 -154 125 -154 25 0
56 8 76 20 30 19 32 23 32 80 l0 60 -55 0 c-41 0 -55 -4 -55 -14 0 -10 13 -16
38 -18 33 -3 37 -6 40 -35 6 -58 -77 -85 -131 -42 -71 55 -48 216 33 234 35 8
79 -15 87 -46 6 -20 18 -25 27 -10 11 18 -13 60 -43 76 -40 20 -69 19 -108 -5z"/>
<path d="M3810 372 c-46 -23 -70 -72 -70 -145 0 -104 43 -157 127 -157 21 0
53 9 71 20 30 19 32 23 32 80 l0 60 -49 0 c-33 0 -51 -5 -54 -14 -4 -11 4 -16
31 -18 33 -3 37 -6 40 -35 6 -64 -86 -87 -139 -34 -26 26 -29 36 -29 91 0 73
18 113 60 130 38 16 82 0 98 -36 13 -27 32 -32 32 -8 0 26 -19 53 -50 69 -37
19 -57 19 -100 -3z"/>
<path d="M1770 330 c0 -47 -11 -63 -25 -40 -12 19 -53 10 -74 -16 -39 -50 -40
-140 0 -182 22 -24 68 -29 87 -10 9 9 12 9 12 0 0 -7 7 -12 15 -12 13 0 15 24
15 155 0 131 -2 155 -15 155 -11 0 -15 -12 -15 -50z m-18 -77 c37 -33 16 -163
-27 -163 -29 0 -55 42 -55 90 0 75 40 111 82 73z"/>
<path d="M1960 225 l0 -155 90 0 c73 0 90 3 90 15 0 12 -15 15 -75 15 l-75 0
0 55 0 54 67 3 c55 2 68 6 71 21 3 15 -5 17 -67 17 l-71 0 0 50 0 50 75 0 c60
0 75 3 75 15 0 12 -17 15 -90 15 l-90 0 0 -155z"/>
<path d="M2310 330 c0 -54 -1 -56 -29 -39 -28 18 -69 3 -87 -33 -21 -41 -15
-139 11 -168 20 -22 74 -27 93 -8 9 9 12 9 12 0 0 -7 5 -12 10 -12 6 0 10 58
10 155 0 97 -4 155 -10 155 -5 0 -10 -22 -10 -50z m-21 -73 c34 -41 24 -141
-16 -160 -22 -10 -28 -8 -44 12 -21 26 -26 109 -9 142 12 22 52 25 69 6z"/>
<path d="M3060 360 c0 -11 7 -20 15 -20 8 0 15 9 15 20 0 11 -7 20 -15 20 -8
0 -15 -9 -15 -20z"/>
<path d="M4530 331 l0 -49 -29 11 c-15 5 -35 8 -44 4 -51 -19 -71 -140 -31
-194 24 -31 67 -42 91 -21 13 10 17 10 20 1 3 -7 9 -13 14 -13 5 0 9 68 9 155
0 131 -2 155 -15 155 -11 0 -15 -12 -15 -49z m-4 -98 c25 -59 0 -143 -42 -143
-25 0 -54 51 -54 94 0 86 67 120 96 49z"/>
<path d="M4810 266 c0 -135 -9 -166 -45 -166 -20 0 -27 6 -31 30 -8 35 -34 41
-34 7 0 -61 75 -91 115 -47 16 18 19 40 20 155 2 108 -1 135 -11 135 -11 0
-14 -25 -14 -114z"/>
<path d="M5090 225 c0 -87 4 -155 9 -155 5 0 11 6 14 13 3 9 7 9 20 -1 24 -20
67 -10 91 21 39 53 20 175 -31 194 -9 4 -29 1 -44 -4 l-29 -11 0 49 c0 37 -4
49 -15 49 -13 0 -15 -24 -15 -155z m114 23 c33 -47 6 -158 -38 -158 -42 0 -67
84 -42 143 18 44 55 51 80 15z"/>
<path d="M2983 363 c-7 -3 -13 -18 -13 -34 0 -16 -4 -29 -10 -29 -5 0 -10 -7
-10 -15 0 -8 5 -15 10 -15 6 0 10 -36 10 -88 0 -55 4 -92 12 -100 17 -17 48
-15 48 3 0 8 -7 15 -15 15 -12 0 -15 16 -15 85 0 69 3 85 15 85 8 0 15 7 15
15 0 8 -6 15 -14 15 -9 0 -16 12 -18 33 -2 22 -7 32 -15 30z"/>
<path d="M1283 285 c-27 -19 -47 -86 -39 -131 10 -53 42 -84 85 -84 54 0 74
26 79 104 4 56 1 65 -23 94 -30 36 -67 42 -102 17z m82 -35 c29 -32 26 -117
-4 -141 -31 -26 -46 -24 -71 9 -18 21 -21 36 -17 74 2 26 10 54 17 63 18 21
54 19 75 -5z"/>
<path d="M1483 285 c-48 -34 -54 -146 -11 -192 27 -28 77 -30 109 -4 19 15 24
30 27 83 4 58 2 67 -23 96 -30 36 -67 42 -102 17z m79 -32 c26 -24 25 -116 -2
-143 -27 -27 -44 -25 -70 8 -18 21 -21 36 -17 74 2 26 10 54 17 63 16 20 49
19 72 -2z"/>
<path d="M2390 201 c0 -77 4 -103 16 -115 19 -19 65 -21 83 -3 11 9 14 10 18
0 14 -39 23 1 23 102 0 70 -4 115 -10 115 -6 0 -10 -33 -10 -79 0 -64 -4 -83
-21 -105 -46 -59 -79 -17 -79 101 0 49 -4 83 -10 83 -6 0 -10 -40 -10 -99z"/>
<path d="M2622 293 c-43 -17 -58 -150 -21 -197 38 -48 129 -24 129 34 0 28
-19 25 -30 -4 -12 -33 -46 -43 -71 -20 -25 22 -27 124 -3 148 21 22 51 20 66
-4 14 -23 38 -27 38 -7 0 36 -66 67 -108 50z"/>
<path d="M2785 275 c-14 -13 -25 -29 -25 -35 0 -18 25 -11 38 11 10 15 21 19
45 17 26 -2 33 -8 35 -30 3 -23 -1 -28 -25 -34 -63 -14 -79 -22 -92 -49 -12
-25 -12 -32 0 -54 17 -30 65 -39 101 -20 16 9 23 9 26 0 2 -6 9 -11 15 -11 19
0 10 190 -10 213 -24 26 -79 22 -108 -8z m95 -122 c0 -54 -67 -86 -90 -44 -14
28 -3 50 34 60 50 15 56 13 56 -16z"/>
<path d="M3067 293 c-4 -3 -7 -55 -7 -115 0 -89 3 -108 15 -108 12 0 15 19 15
115 0 105 -5 127 -23 108z"/>
<path d="M3167 280 c-48 -38 -46 -174 3 -200 30 -16 78 -12 100 10 26 26 34
60 27 118 -9 80 -74 116 -130 72z m87 -32 c23 -33 21 -113 -4 -138 -44 -44
-90 -4 -90 77 0 48 23 83 55 83 13 0 31 -10 39 -22z"/>
<path d="M3340 185 c0 -96 3 -115 15 -115 12 0 15 16 15 84 0 89 12 116 49
116 33 0 41 -22 41 -112 0 -74 3 -88 16 -88 14 0 15 14 12 101 -2 86 -6 103
-22 115 -26 18 -60 18 -76 -1 -7 -8 -16 -15 -21 -15 -5 0 -9 7 -9 15 0 8 -4
15 -10 15 -6 0 -10 -45 -10 -115z"/>
<path d="M4036 275 c-39 -42 -39 -143 0 -186 23 -26 85 -26 108 0 23 25 36 84
29 127 -13 77 -90 110 -137 59z m100 -37 c19 -38 14 -101 -12 -129 -53 -59
-117 38 -80 124 13 31 20 37 45 37 24 0 34 -7 47 -32z"/>
<path d="M4240 282 c-40 -33 -44 -149 -5 -192 28 -31 88 -27 114 6 38 49 22
180 -24 198 -29 11 -62 6 -85 -12z m74 -18 c21 -8 37 -71 28 -114 -5 -23 -17
-40 -35 -50 -25 -14 -28 -13 -48 6 -28 29 -36 92 -15 132 16 31 37 39 70 26z"/>
<path d="M4915 278 c-29 -26 -41 -78 -31 -133 9 -49 38 -75 81 -75 62 0 95 61
82 148 -7 43 -46 82 -82 82 -13 0 -36 -10 -50 -22z m89 -30 c28 -39 17 -127
-18 -150 -37 -25 -76 16 -76 80 0 56 21 92 55 92 13 0 31 -10 39 -22z"/>
<path d="M5309 290 c-25 -15 -32 -58 -15 -85 8 -13 34 -29 58 -37 48 -16 61
-44 32 -65 -26 -19 -42 -16 -70 14 -29 32 -44 22 -23 -15 11 -20 24 -28 51
-30 49 -4 75 11 83 49 9 38 -10 61 -71 84 -36 14 -45 21 -42 39 4 27 65 37 74
12 7 -18 34 -22 34 -6 0 6 -9 19 -20 30 -21 21 -64 26 -91 10z"/>
<path d="M3550 90 c0 -11 5 -20 11 -20 6 0 8 -7 5 -15 -21 -52 -21 -51 -3 -36
22 18 24 91 2 91 -8 0 -15 -9 -15 -20z"/>
</g>
</svg>
