<svg width="247" height="344" viewBox="0 0 247 344" fill="none" xmlns="http://www.w3.org/2000/svg">
<path fill-rule="evenodd" clip-rule="evenodd" d="M123.5 0C55.2221 0 0 55.2445 0 123.55C0 197.15 77.9814 298.638 110.091 337.292C117.149 345.764 130.028 345.764 137.085 337.292C169.019 298.638 247 197.15 247 123.55C247 55.2445 191.778 0 123.5 0ZM123.5 167.675C99.1529 167.675 79.3929 147.907 79.3929 123.55C79.3929 99.193 99.1529 79.425 123.5 79.425C147.847 79.425 167.607 99.193 167.607 123.55C167.607 147.907 147.847 167.675 123.5 167.675Z" fill="#ED3237"/>
</svg>
